HIERARCHY
ROOT newVegas:Hips
{
	OFFSET 0.000000 96.479958 0.000000
	CHANNELS 6 Xposition Yposition Zposition Xrotation Yrotation Zrotation
	JOINT newVegas:Pelvis
	{
		OFFSET 0.000000 0.000000 0.000000
		CHANNELS 3 Xrotation Yrotation Zrotation
		JOINT newVegas:LeftUpLeg
		{
			OFFSET 18.735201 -5.666702 -4.541200
			CHANNELS 3 Xrotation Yrotation Zrotation
			JOINT newVegas:LeftLeg
			{
				OFFSET -0.021200 -31.938179 0.493100
				CHANNELS 3 Xrotation Yrotation Zrotation
				JOINT newVegas:LeftFoot
				{
					OFFSET 0.021200 -31.938179 -4.336299
					CHANNELS 3 Xrotation Yrotation Zrotation
					JOINT newVegas:LeftToeBase
					{
						OFFSET 0.943001 -26.722000 15.023500
						CHANNELS 3 Xrotation Yrotation Zrotation
						End Site
						{
							OFFSET 0.000000 30.670183 0.000000
						}
					}
				}
				JOINT newVegas:Left_PantLeg
				{
					OFFSET 0.663870 -9.044666 -1.108900
					CHANNELS 3 Xrotation Yrotation Zrotation
					End Site
					{
						OFFSET 1.415995 20.635357 0.000000
					}
				}
			}
		}
		JOINT newVegas:RightUpLeg
		{
			OFFSET -18.735201 -5.666702 -4.541200
			CHANNELS 3 Xrotation Yrotation Zrotation
			JOINT newVegas:RightLeg
			{
				OFFSET 0.018946 -31.938133 0.493100
				CHANNELS 3 Xrotation Yrotation Zrotation
				JOINT newVegas:RightFoot
				{
					OFFSET -0.018946 -31.938126 -4.336299
					CHANNELS 3 Xrotation Yrotation Zrotation
					JOINT newVegas:RightToeBase
					{
						OFFSET -0.943001 -26.722004 15.023500
						CHANNELS 3 Xrotation Yrotation Zrotation
						End Site
						{
							OFFSET 0.000000 30.670187 0.000000
						}
					}
				}
				JOINT newVegas:Right_PantLeg
				{
					OFFSET -0.661674 -9.044716 -1.108900
					CHANNELS 3 Xrotation Yrotation Zrotation
					End Site
					{
						OFFSET -1.415958 20.635269 0.000000
					}
				}
			}
		}
	}
	JOINT newVegas:Spine
	{
		OFFSET 0.000000 10.199997 -0.299500
		CHANNELS 3 Xrotation Yrotation Zrotation
		JOINT newVegas:Spine1
		{
			OFFSET 0.000000 11.900002 -1.516600
			CHANNELS 3 Xrotation Yrotation Zrotation
			JOINT newVegas:Spine2
			{
				OFFSET 0.000000 13.600006 -2.842500
				CHANNELS 3 Xrotation Yrotation Zrotation
				JOINT newVegas:Neck
				{
					OFFSET 0.000000 9.624100 -2.890100
					CHANNELS 3 Xrotation Yrotation Zrotation
					JOINT newVegas:Head
					{
						OFFSET 0.000000 14.068802 -1.351900
						CHANNELS 3 Xrotation Yrotation Zrotation
						JOINT newVegas:Hair_Back
						{
							OFFSET 0.000000 3.231903 -17.524799
							CHANNELS 3 Xrotation Yrotation Zrotation
							End Site
							{
								OFFSET 0.000000 19.849884 0.000000
							}
						}
						JOINT newVegas:Hair_Front
						{
							OFFSET 0.000000 31.260406 4.573800
							CHANNELS 3 Xrotation Yrotation Zrotation
							JOINT newVegas:Hair_Front1
							{
								OFFSET 0.000000 2.284103 11.993300
								CHANNELS 3 Xrotation Yrotation Zrotation
								JOINT newVegas:Hair_Front2
								{
									OFFSET 0.000000 2.284103 11.993300
									CHANNELS 3 Xrotation Yrotation Zrotation
									End Site
									{
										OFFSET 0.000000 12.208862 0.000000
									}
								}
							}
						}
						JOINT newVegas:Jowel
						{
							OFFSET 0.000000 -7.458206 6.864100
							CHANNELS 3 Xrotation Yrotation Zrotation
							End Site
							{
								OFFSET 0.000000 19.849884 0.000000
							}
						}
					}
				}
				JOINT newVegas:LeftShoulder
				{
					OFFSET 15.263000 10.923401 -0.547700
					CHANNELS 3 Xrotation Yrotation Zrotation
					JOINT newVegas:LeftArm
					{
						OFFSET 25.438599 -2.830597 -13.032500
						CHANNELS 3 Xrotation Yrotation Zrotation
						JOINT newVegas:LeftForeArm
						{
							OFFSET 29.960503 0.000000 0.000000
							CHANNELS 3 Xrotation Yrotation Zrotation
							JOINT newVegas:LeftHand
							{
								OFFSET 27.849251 0.000000 0.000000
								CHANNELS 3 Xrotation Yrotation Zrotation
								JOINT newVegas:LeftHandThumb1
								{
									OFFSET 4.487587 -3.305161 6.305391
									CHANNELS 3 Xrotation Yrotation Zrotation
									JOINT newVegas:LeftHandThumb2
									{
										OFFSET 5.480453 -3.164139 3.164143
										CHANNELS 3 Xrotation Yrotation Zrotation
										JOINT newVegas:LeftHandThumb3
										{
											OFFSET 5.159721 -2.978973 2.978967
											CHANNELS 3 Xrotation Yrotation Zrotation
											End Site
											{
												OFFSET 2.494507 5.926697 1.738678
											}
										}
									}
								}
								JOINT newVegas:LeftHandIndex1
								{
									OFFSET 18.578728 -0.527832 5.208049
									CHANNELS 3 Xrotation Yrotation Zrotation
									JOINT newVegas:LeftHandIndex2
									{
										OFFSET 3.192009 0.000000 0.000000
										CHANNELS 3 Xrotation Yrotation Zrotation
										JOINT newVegas:LeftHandIndex3
										{
											OFFSET 3.835129 0.000000 0.000000
											CHANNELS 3 Xrotation Yrotation Zrotation
											End Site
											{
												OFFSET -0.034599 3.816971 0.371180
											}
										}
									}
								}
								JOINT newVegas:LeftHandMiddle1
								{
									OFFSET 18.476105 0.000000 0.000000
									CHANNELS 3 Xrotation Yrotation Zrotation
									JOINT newVegas:LeftHandMiddle2
									{
										OFFSET 3.324875 0.000000 0.000000
										CHANNELS 3 Xrotation Yrotation Zrotation
										JOINT newVegas:LeftHandMiddle3
										{
											OFFSET 4.596550 0.000000 0.000000
											CHANNELS 3 Xrotation Yrotation Zrotation
											End Site
											{
												OFFSET 0.057701 4.578827 0.399218
											}
										}
									}
								}
								JOINT newVegas:LeftHandRing1
								{
									OFFSET 17.732719 0.121887 -4.201567
									CHANNELS 3 Xrotation Yrotation Zrotation
									JOINT newVegas:LeftHandRing2
									{
										OFFSET 2.733170 0.000000 0.000000
										CHANNELS 3 Xrotation Yrotation Zrotation
										JOINT newVegas:LeftHandRing3
										{
											OFFSET 3.178268 0.000000 0.000000
											CHANNELS 3 Xrotation Yrotation Zrotation
											End Site
											{
												OFFSET 0.119102 3.170624 0.185394
											}
										}
									}
								}
								JOINT newVegas:LeftHandPinky1
								{
									OFFSET 15.989624 -0.606689 -7.535461
									CHANNELS 3 Xrotation Yrotation Zrotation
									JOINT newVegas:LeftHandPinky2
									{
										OFFSET 2.538986 0.000000 0.000000
										CHANNELS 3 Xrotation Yrotation Zrotation
										JOINT newVegas:LeftHandPinky3
										{
											OFFSET 2.593102 0.000000 0.000000
											CHANNELS 3 Xrotation Yrotation Zrotation
											End Site
											{
												OFFSET -0.150902 2.584198 0.152708
											}
										}
									}
								}
							}
							JOINT newVegas:Left_Sleeve
							{
								OFFSET 0.267448 -0.649796 0.577675
								CHANNELS 3 Xrotation Yrotation Zrotation
								End Site
								{
									OFFSET 0.000000 15.991241 0.000000
								}
							}
							JOINT newVegas:Left_CapeC
							{
								OFFSET 15.715958 -8.608795 -6.935905
								CHANNELS 3 Xrotation Yrotation Zrotation
								JOINT newVegas:Left_CapeC1
								{
									OFFSET 0.000000 -8.688499 0.000000
									CHANNELS 3 Xrotation Yrotation Zrotation
									End Site
									{
										OFFSET 0.000000 8.688499 0.000000
									}
								}
							}
						}
						JOINT newVegas:Left_CapeB
						{
							OFFSET 26.118385 -8.608795 -7.079235
							CHANNELS 3 Xrotation Yrotation Zrotation
							JOINT newVegas:Left_CapeB1
							{
								OFFSET 0.000000 -8.688499 0.000000
								CHANNELS 3 Xrotation Yrotation Zrotation
								End Site
								{
									OFFSET 0.000000 8.688499 0.000000
								}
							}
						}
						JOINT newVegas:Left_CapeA
						{
							OFFSET 5.115639 -8.608795 -10.395809
							CHANNELS 3 Xrotation Yrotation Zrotation
							JOINT newVegas:Left_CapeA1
							{
								OFFSET 0.000000 -8.688499 0.000000
								CHANNELS 3 Xrotation Yrotation Zrotation
								End Site
								{
									OFFSET 0.000000 8.688499 0.000000
								}
							}
						}
					}
				}
				JOINT newVegas:RightShoulder
				{
					OFFSET -15.263000 10.923401 -0.547700
					CHANNELS 3 Xrotation Yrotation Zrotation
					JOINT newVegas:RightArm
					{
						OFFSET -25.438599 -2.830597 -13.032500
						CHANNELS 3 Xrotation Yrotation Zrotation
						JOINT newVegas:RightForeArm
						{
							OFFSET -29.960503 0.000000 0.000000
							CHANNELS 3 Xrotation Yrotation Zrotation
							JOINT newVegas:RightHand
							{
								OFFSET -27.849251 0.000000 0.000000
								CHANNELS 3 Xrotation Yrotation Zrotation
								JOINT newVegas:RightHandThumb1
								{
									OFFSET -4.487587 -3.305161 6.305391
									CHANNELS 3 Xrotation Yrotation Zrotation
									JOINT newVegas:RightHandThumb2
									{
										OFFSET -5.480453 -3.164139 3.164143
										CHANNELS 3 Xrotation Yrotation Zrotation
										JOINT newVegas:RightHandThumb3
										{
											OFFSET -5.159721 -2.978973 2.978967
											CHANNELS 3 Xrotation Yrotation Zrotation
											End Site
											{
												OFFSET -2.494507 5.926697 1.738678
											}
										}
									}
								}
								JOINT newVegas:RightHandIndex1
								{
									OFFSET -18.578728 -0.527832 5.208049
									CHANNELS 3 Xrotation Yrotation Zrotation
									JOINT newVegas:RightHandIndex2
									{
										OFFSET -3.192009 0.000000 0.000000
										CHANNELS 3 Xrotation Yrotation Zrotation
										JOINT newVegas:RightHandIndex3
										{
											OFFSET -3.835129 0.000000 0.000000
											CHANNELS 3 Xrotation Yrotation Zrotation
											End Site
											{
												OFFSET 0.034599 3.816971 0.371180
											}
										}
									}
								}
								JOINT newVegas:RightHandMiddle1
								{
									OFFSET -18.476105 0.000000 0.000000
									CHANNELS 3 Xrotation Yrotation Zrotation
									JOINT newVegas:RightHandMiddle2
									{
										OFFSET -3.324875 0.000000 0.000000
										CHANNELS 3 Xrotation Yrotation Zrotation
										JOINT newVegas:RightHandMiddle3
										{
											OFFSET -4.596550 0.000000 0.000000
											CHANNELS 3 Xrotation Yrotation Zrotation
											End Site
											{
												OFFSET -0.057701 4.578827 0.399218
											}
										}
									}
								}
								JOINT newVegas:RightHandRing1
								{
									OFFSET -17.732719 0.121887 -4.201567
									CHANNELS 3 Xrotation Yrotation Zrotation
									JOINT newVegas:RightHandRing2
									{
										OFFSET -2.733170 0.000000 0.000000
										CHANNELS 3 Xrotation Yrotation Zrotation
										JOINT newVegas:RightHandRing3
										{
											OFFSET -3.178268 0.000000 0.000000
											CHANNELS 3 Xrotation Yrotation Zrotation
											End Site
											{
												OFFSET -0.119102 3.170624 0.185394
											}
										}
									}
								}
								JOINT newVegas:RightHandPinky1
								{
									OFFSET -15.989624 -0.606689 -7.535461
									CHANNELS 3 Xrotation Yrotation Zrotation
									JOINT newVegas:RightHandPinky2
									{
										OFFSET -2.538986 0.000000 0.000000
										CHANNELS 3 Xrotation Yrotation Zrotation
										JOINT newVegas:RightHandPinky3
										{
											OFFSET -2.593102 0.000000 0.000000
											CHANNELS 3 Xrotation Yrotation Zrotation
											End Site
											{
												OFFSET 0.150902 2.584198 0.152708
											}
										}
									}
								}
							}
							JOINT newVegas:Right_CapeC
							{
								OFFSET -15.715958 -8.608795 -6.935905
								CHANNELS 3 Xrotation Yrotation Zrotation
								JOINT newVegas:Right_CapeC1
								{
									OFFSET 0.000000 -8.688499 0.000000
									CHANNELS 3 Xrotation Yrotation Zrotation
									End Site
									{
										OFFSET 0.000000 8.688499 0.000000
									}
								}
							}
							JOINT newVegas:Right_Sleeve
							{
								OFFSET -0.267448 -0.649994 0.577675
								CHANNELS 3 Xrotation Yrotation Zrotation
								End Site
								{
									OFFSET 0.000000 15.991302 0.000000
								}
							}
						}
						JOINT newVegas:Right_CapeA
						{
							OFFSET -5.115540 -8.608795 -10.395824
							CHANNELS 3 Xrotation Yrotation Zrotation
							JOINT newVegas:Right_CapeA1
							{
								OFFSET 0.000000 -8.688499 0.000000
								CHANNELS 3 Xrotation Yrotation Zrotation
								End Site
								{
									OFFSET 0.000000 8.688499 0.000000
								}
							}
						}
						JOINT newVegas:Right_CapeB
						{
							OFFSET -26.118187 -8.608795 -7.079266
							CHANNELS 3 Xrotation Yrotation Zrotation
							JOINT newVegas:Right_CapeB1
							{
								OFFSET 0.000000 -8.688499 0.000000
								CHANNELS 3 Xrotation Yrotation Zrotation
								End Site
								{
									OFFSET 0.000000 8.688499 0.000000
								}
							}
						}
					}
				}
				JOINT newVegas:Left_Collar
				{
					OFFSET 18.625099 8.655502 8.828100
					CHANNELS 3 Xrotation Yrotation Zrotation
					JOINT newVegas:Left_Collar1
					{
						OFFSET 14.783401 10.540405 -1.259500
						CHANNELS 3 Xrotation Yrotation Zrotation
						End Site
						{
							OFFSET 0.000000 18.199875 0.000000
						}
					}
				}
				JOINT newVegas:Collar_Back
				{
					OFFSET 0.000000 15.630707 -20.132601
					CHANNELS 3 Xrotation Yrotation Zrotation
					End Site
					{
						OFFSET 0.000000 22.523010 0.000000
					}
				}
				JOINT newVegas:Left_Peck
				{
					OFFSET 17.239599 -5.132599 25.482599
					CHANNELS 3 Xrotation Yrotation Zrotation
					End Site
					{
						OFFSET 0.000000 22.523010 0.000000
					}
				}
				JOINT newVegas:Right_Peck
				{
					OFFSET -17.239599 -5.132202 25.482599
					CHANNELS 3 Xrotation Yrotation Zrotation
					End Site
					{
						OFFSET 0.000000 22.523010 0.000000
					}
				}
				JOINT newVegas:Right_Collar
				{
					OFFSET -18.625099 8.655792 8.828100
					CHANNELS 3 Xrotation Yrotation Zrotation
					JOINT newVegas:Right_Collar1
					{
						OFFSET -14.783401 10.539993 -1.259500
						CHANNELS 3 Xrotation Yrotation Zrotation
						End Site
						{
							OFFSET 0.000000 18.199631 0.000000
						}
					}
				}
			}
		}
		JOINT newVegas:Belly
		{
			OFFSET 0.000000 -6.540398 9.014299
			CHANNELS 3 Xrotation Yrotation Zrotation
			End Site
			{
				OFFSET 0.000000 11.566666 0.000000
			}
		}
	}
	JOINT newVegas:ElvisFacialAnim_Joint
	{
		OFFSET 1.000000 -95.330101 -8.825800
		CHANNELS 3 Xrotation Yrotation Zrotation
		End Site
		{
			OFFSET 0.000000 35.315800 0.000000
		}
	}
}
MOTION
Frames: 4
Frame Time: 0.033333
3.726818 92.337311 1.193237 -3.136869 -4.401184 -4.161513 -0.000000 0.000000 0.000000 -18.710607 -1.774051 7.883030 40.514486 -0.909471 -1.467700 -18.216111 8.666678 -2.406370 -0.000000 0.000000 0.000000 0.000000 -0.000000 -0.000000 -9.246992 -2.493959 -5.332729 26.154633 0.158289 0.986994 -13.298302 -7.161265 9.154514 -0.000000 -0.000001 -0.000000 -0.000001 0.000001 -0.000001 5.176870 0.626043 -1.410153 10.360070 1.144645 -2.334629 10.360073 1.144645 -2.334631 1.027108 -0.765889 -0.359751 1.027101 -0.765892 -0.359750 -0.000000 0.000000 0.000000 1.027038 -0.765895 -0.359752 1.027177 -0.765883 -0.359751 -0.000001 -0.000001 -0.000000 -0.000000 0.000000 0.000000 0.210890 0.577842 1.754908 -8.743978 -35.799859 -67.107585 -0.421254 -97.420627 -0.752082 48.909810 0.909673 18.190677 2.249861 -13.170055 -6.978561 6.271879 12.262495 -4.460849 0.000003 0.000001 -0.000003 -6.035947 2.101337 -10.287031 -0.018517 0.339504 -17.341813 -0.000002 -0.000004 -0.000002 -0.369337 2.238361 -14.988748 -0.633335 -2.310128 -29.830476 0.000003 -0.000004 -0.000002 0.520576 5.164867 -24.248348 -0.424167 -2.009522 -24.325191 0.000001 0.000003 0.000002 2.802020 5.201564 -38.281008 0.010423 -0.532685 -4.347104 0.000002 -0.000003 0.000003 0.000001 0.000000 0.000001 0.000001 0.000000 0.000001 0.000001 0.000000 0.000001 -0.000001 0.000000 0.000000 -0.000001 0.000000 0.000000 -0.000001 0.000000 0.000000 -0.000002 -0.000000 -0.000000 1.106432 -2.380193 -5.065971 9.589787 7.254151 80.651338 2.817550 95.080475 -3.489475 32.106209 7.910092 -26.069242 5.405787 6.792865 13.883968 4.046260 -10.067233 0.599693 0.000001 -0.000001 -0.000002 -6.398756 -6.712801 15.113837 0.023760 -0.292758 6.409083 0.000000 -0.000001 0.000001 -1.907968 -1.614463 21.077170 -0.183251 1.137795 18.343388 0.000001 0.000002 -0.000002 2.188724 -4.857147 17.850607 -2.251198 4.651961 48.819460 -0.000000 0.000001 -0.000000 3.394785 1.532660 32.503409 -2.051060 6.061488 37.588693 0.000001 -0.000002 -0.000001 -0.000002 -0.000002 0.000001 0.000000 -0.000003 0.000000 -0.000002 -0.000002 0.000002 -0.000000 0.000000 -0.000003 -0.000001 0.000001 -0.000003 -0.000000 0.000000 -0.000003 -0.000001 -0.000000 -0.000003 0.000001 0.000000 0.000001 0.000001 0.000000 0.000001 0.000001 0.000000 0.000001 0.000001 0.000000 0.000001 0.000001 0.000000 0.000001 0.000001 0.000000 0.000001 0.000001 0.000000 0.000001 -0.000000 0.000000 0.000000 -0.000000 0.000000 0.000000 
3.803394 92.377472 1.275986 -3.115389 -4.536761 -4.180156 0.000000 -0.000000 0.000000 -18.543204 -1.713789 7.806876 40.360291 -0.896396 -1.460797 -18.265872 8.775273 -2.314791 0.000000 0.000000 0.000000 -0.000000 -0.000000 -0.000000 -9.089062 -2.405106 -5.397163 25.766723 0.162180 0.973640 -13.016014 -7.140050 9.340234 -0.000000 -0.000001 -0.000000 -0.000001 -0.000001 -0.000001 5.138549 0.621338 -1.399467 10.283225 1.135941 -2.309498 10.283230 1.135943 -2.309497 1.017607 -0.762517 -0.335481 1.017583 -0.762517 -0.335475 0.000001 -0.000000 -0.000000 1.017527 -0.762525 -0.335482 1.017762 -0.762510 -0.335477 -0.000001 -0.000000 0.000001 0.000001 -0.000000 -0.000000 0.191464 0.518747 1.593105 -8.407369 -35.442217 -67.121819 -0.348222 -97.287821 -0.666140 48.681316 0.780982 18.294008 2.305995 -12.443744 -6.839115 6.203444 12.454107 -4.479719 0.000003 0.000000 -0.000004 -6.015289 2.142208 -11.101621 -0.016990 0.343484 -17.574090 -0.000002 -0.000003 -0.000001 -0.377903 2.210751 -15.355302 -0.628113 -2.301316 -29.701689 -0.000000 0.000001 0.000000 0.534304 5.135812 -24.744196 -0.428518 -2.019167 -24.449101 -0.000001 -0.000004 0.000002 2.686249 5.037124 -38.435305 0.008754 -0.553183 -4.519996 0.000002 -0.000005 -0.000001 0.000001 0.000000 0.000000 0.000001 0.000000 0.000000 0.000001 0.000000 0.000000 0.000001 0.000000 0.000001 0.000001 0.000000 0.000000 0.000001 0.000000 0.000001 -0.000000 -0.000000 0.000001 1.083859 -2.328698 -4.940838 9.553791 7.101062 80.737358 3.032450 94.883697 -3.705849 32.120464 7.860963 -26.035791 5.382549 6.272003 13.750801 3.849055 -10.770220 0.895448 0.000002 -0.000000 -0.000000 -6.369105 -6.659522 15.717597 0.025705 -0.308204 6.789668 0.000001 -0.000003 0.000000 -1.934527 -1.568298 21.620066 -0.205768 1.194205 19.385130 -0.000000 0.000001 -0.000003 2.190470 -4.818827 18.199949 -2.286375 4.682088 49.250810 0.000000 0.000001 0.000002 3.267556 1.695876 32.805767 -2.062349 6.074474 37.698075 -0.000001 0.000003 0.000002 0.000000 0.000001 -0.000000 0.000000 -0.000001 -0.000001 0.000000 0.000001 -0.000000 -0.000001 0.000002 -0.000003 -0.000002 0.000003 -0.000003 -0.000001 0.000002 -0.000003 -0.000002 0.000003 -0.000003 0.000002 -0.000000 -0.000000 0.000002 -0.000000 -0.000000 0.000002 -0.000000 -0.000000 0.000002 -0.000000 -0.000000 0.000002 -0.000000 -0.000000 0.000002 -0.000000 -0.000000 0.000002 -0.000000 -0.000000 -0.000000 -0.000000 0.000000 0.000000 -0.000000 0.000000 
3.877822 92.404541 1.351122 -3.104522 -4.659628 -4.204110 0.000000 0.000000 -0.000000 -18.406578 -1.677483 7.736528 40.270925 -0.884843 -1.456276 -18.337156 8.876784 -2.228413 -0.000000 0.000000 -0.000000 -0.000000 -0.000000 0.000000 -8.952752 -2.308413 -5.447963 25.449958 0.166408 0.962887 -12.779685 -7.139020 9.497422 -0.000000 -0.000001 -0.000000 -0.000000 -0.000000 -0.000001 5.107387 0.614958 -1.386320 10.220644 1.124011 -2.278846 10.220652 1.124013 -2.278845 1.008689 -0.759638 -0.311712 1.008678 -0.759637 -0.311705 -0.000000 -0.000001 -0.000000 1.008690 -0.759640 -0.311708 1.008703 -0.759642 -0.311714 -0.000001 -0.000001 0.000000 -0.000000 -0.000001 -0.000000 0.176984 0.475304 1.474890 -8.164701 -35.145999 -67.192990 -0.285547 -97.121848 -0.591264 48.382666 0.643686 18.366391 2.188262 -11.776937 -6.658704 6.047245 12.901532 -4.531708 0.000004 0.000003 -0.000001 -6.004054 2.117108 -12.145764 -0.016629 0.344399 -17.628735 0.000003 -0.000003 -0.000002 -0.378075 2.214490 -16.112175 -0.623721 -2.293832 -29.592993 0.000000 -0.000004 -0.000003 0.531359 5.029057 -25.622519 -0.435014 -2.033449 -24.633151 -0.000001 -0.000004 0.000001 2.640348 4.929762 -38.821426 0.007591 -0.566920 -4.635513 0.000001 -0.000003 0.000001 0.000001 0.000000 0.000002 0.000001 0.000000 0.000002 0.000001 0.000000 0.000002 0.000002 0.000000 0.000000 0.000003 0.000000 0.000000 0.000002 0.000000 0.000000 0.000001 -0.000000 0.000000 1.060045 -2.276020 -4.808938 9.511385 6.975929 80.743197 3.211634 94.719042 -3.884876 32.090688 7.837267 -25.990907 5.361344 6.103854 13.705318 3.578530 -11.766588 1.322159 -0.000000 0.000000 -0.000000 -6.286782 -6.655485 16.810858 0.027587 -0.322130 7.133072 0.000002 -0.000001 0.000001 -1.975931 -1.506978 22.685427 -0.252592 1.302777 21.413937 0.000001 0.000000 0.000001 2.188133 -4.739692 18.801108 -2.358659 4.742722 50.129613 0.000000 -0.000001 -0.000000 3.080313 1.924113 33.296219 -2.080985 6.095852 37.877948 -0.000000 0.000002 -0.000000 -0.000001 -0.000003 0.000001 -0.000000 0.000000 -0.000000 -0.000001 -0.000003 0.000001 -0.000001 -0.000003 -0.000000 -0.000001 -0.000003 -0.000000 -0.000001 -0.000003 -0.000000 -0.000001 -0.000003 -0.000000 -0.000002 0.000000 0.000001 -0.000002 0.000000 0.000001 -0.000002 0.000000 0.000001 -0.000002 0.000000 0.000001 -0.000002 0.000000 0.000001 -0.000002 0.000000 0.000001 -0.000002 0.000000 0.000001 -0.000000 -0.000001 -0.000000 0.000000 0.000000 -0.000000 
3.954224 92.418968 1.418746 -3.100876 -4.766940 -4.231536 -0.000000 -0.000000 0.000000 -18.299407 -1.652982 7.669387 40.242996 -0.874491 -1.453951 -18.432529 8.979153 -2.142144 0.000000 0.000000 -0.000000 0.000001 -0.000000 -0.000000 -8.844068 -2.218733 -5.507197 25.201318 0.172395 0.954809 -12.571341 -7.134972 9.669926 -0.000000 0.000001 -0.000000 -0.000000 0.000001 0.000001 5.082927 0.606681 -1.371605 10.171403 1.108358 -2.243863 10.171409 1.108357 -2.243864 1.002434 -0.759048 -0.290273 1.002436 -0.759043 -0.290270 -0.000001 0.000000 -0.000000 1.002526 -0.759053 -0.290268 1.002366 -0.759050 -0.290269 0.000003 -0.000000 -0.000001 -0.000001 0.000000 -0.000000 0.169486 0.452466 1.413664 -8.047101 -34.891769 -67.383170 -0.226108 -96.892060 -0.519414 48.161269 0.517700 18.419413 1.954004 -11.217280 -6.463369 5.831439 13.526866 -4.607947 0.000000 0.000000 -0.000004 -5.993821 2.081218 -13.337361 -0.013193 0.353262 -18.144947 -0.000000 -0.000003 -0.000001 -0.381092 2.204966 -17.153477 -0.620113 -2.287688 -29.503470 0.000003 -0.000001 -0.000001 0.639457 5.154314 -26.424670 -0.444206 -2.053361 -24.890147 -0.000003 -0.000002 -0.000000 2.551882 4.759187 -39.320388 0.006228 -0.582775 -4.769096 0.000005 -0.000003 -0.000000 0.000000 0.000001 0.000001 0.000000 0.000001 0.000001 0.000001 0.000001 0.000001 0.000001 -0.000001 0.000000 0.000001 -0.000001 -0.000001 0.000001 -0.000001 0.000000 -0.000000 -0.000001 -0.000000 1.036019 -2.222595 -4.676821 9.469582 6.867342 80.682477 3.346818 94.593216 -4.018528 32.035035 7.819970 -25.938017 5.301984 6.125863 13.684160 3.340164 -12.678267 1.720311 0.000001 -0.000000 -0.000006 -6.187330 -6.661858 18.071118 0.029944 -0.339042 7.549679 -0.000001 0.000001 0.000002 -2.019249 -1.449711 23.922794 -0.317072 1.437106 23.971392 -0.000000 0.000002 -0.000000 2.183162 -4.645332 19.500001 -2.457943 4.822916 51.318357 -0.000002 -0.000004 0.000000 2.888430 2.142897 33.853880 -2.100808 6.118428 38.068739 0.000002 -0.000000 0.000001 -0.000001 0.000001 -0.000000 -0.000001 -0.000002 -0.000001 -0.000001 0.000001 -0.000000 -0.000000 0.000000 0.000000 -0.000000 0.000001 0.000003 -0.000000 0.000000 0.000000 -0.000000 0.000001 0.000002 0.000000 -0.000000 0.000000 0.000000 -0.000000 0.000000 0.000000 -0.000000 0.000000 0.000000 -0.000000 0.000000 0.000000 -0.000000 0.000000 0.000000 -0.000000 0.000000 0.000000 -0.000000 0.000000 -0.000000 -0.000000 -0.000000 -0.000000 -0.000000 0.000000 
